<?xml version="1.0" standalone="no"?>
<!DOCTYPE svg PUBLIC "-//W3C//DTD SVG 1.1//EN" "http://www.w3.org/Graphics/SVG/1.1/DTD/svg11.dtd" >
<!--
2013-9-30: Created.
-->
<svg>
<metadata>
Created by iconfont
</metadata>
<defs>

<font id="iconfont" horiz-adv-x="1024" >
  <font-face
    font-family="iconfont"
    font-weight="500"
    font-stretch="normal"
    units-per-em="1024"
    ascent="896"
    descent="-128"
  />
    <missing-glyph />
    
    <glyph glyph-name="hezuo" unicode="&#58919;" d="M891.075 217.968l-36.157 39.12c160.448 148.43 84.958 305.652 81.681 312.258-40.842 74.24-98.382 121.518-165.885 135.851-66.594 14.178-131.441-6.243-166.288-32.725-86.792-65.93-298.105-298.198-300.224-300.541l-39.433 35.846c8.803 9.678 216.778 238.251 307.433 307.122 41.267 31.319 120.906 61.195 209.597 42.412 57.958-12.304 140.027-50.595 201.936-163.179 1.427-2.752 98.040-199.723-92.66-376.165zM160.011 207.771c-224.749 147.437-120.503 379.107-119.423 381.421 79.090 144.294 205.815 160.383 242.79 161.907 135.879 5.945 233.593-106.015 237.705-110.763l-40.308-34.832c-0.844 0.962-85.765 97.106-195.187 92.371-29.929-1.235-132.627-14.476-197.489-132.717-2.743-6.141-84.62-191.013 101.125-312.857l-29.212-44.532zM567.724-211.091c-26.453 0-60.441 11.134-96.65 51.557l39.694 35.533c18.168-20.288 45.599-42.062 73.11-30.54 21.665 9.027 20.343 56.056 18.807 68.155l-3.941 30.981 31.204-0.937c24.464-0.233 41.947 4.422 51.83 15.503 14.566 16.31 10.935 42.636 10.898 42.893l-4.928 33.898 34.025-3.357c23.89-2.498 41.32 1.666 51.65 12.356 15.841 16.387 15.475 47.445 14.023 58.033l-8.558 61.493 50.437-36.051c6.141-4.344 26.249 1.874 41.413 19.481 9.259 10.746 21.982 31.685 3.125 51.091-45.602 46.98-167.548 168.094-214.634 214.786-31.111-30.695-88.34-84.098-122.117-97.078-141.002-54.16-229.028 30.798-255.885 83.319l47.368 24.374c2.327-4.45 58.595-108.29 189.4-57.955 23.788 9.129 85.622 66.048 121.949 103.53l18.73 19.354 19.146-18.938c1.766-1.769 177.158-175.455 234.282-234.297 33.246-34.233 32.855-83.658-0.987-122.936-17.976-20.886-44.535-36.963-70.653-39.151-2.287-20.548-9.365-45.86-28.405-65.756-16.725-17.482-39.042-27.263-66.551-29.24-2.042-16.648-8.040-37.199-23.515-54.809-15.751-17.923-37.615-28.796-65.192-32.464-1.3-35.691-13.408-79.186-52.404-95.443-9.191-3.842-21.74-7.382-36.672-7.382zM183.749 52.548c-23.996 0-48.227 10.901-66.513 29.941-15.4 16.024-24.961 36.184-26.897 56.761-2.132 22.528 5.281 43.728 20.343 58.191l129.505 124.366c28.874 27.729 82.292 22.422 114.614-11.264 15.397-15.999 24.958-36.157 26.897-56.761 2.135-22.5-5.281-43.728-20.316-58.191l-129.524-124.363c-12.577-12.046-29.665-18.68-48.109-18.68zM288.281 287.212c-3.277 0-7.894-0.676-11.211-3.851l-129.489-124.338c-4.462-4.295-4.552-11.109-4.202-14.777 0.807-8.505 5.281-17.585 12.279-24.871 12.331-12.769 31.384-17.296 39.331-9.703l129.48 124.342c4.462 4.291 4.54 11.109 4.202 14.777-0.807 8.505-5.281 17.56-12.291 24.843-8.17 8.505-18.668 13.579-28.098 13.579zM268.76-33.164c-23.996 0-48.24 10.901-66.489 29.916-33.413 34.754-36.364 86.336-6.594 114.98l129.517 124.366c28.926 27.704 82.317 22.422 114.626-11.264 15.397-16.024 24.958-36.184 26.897-56.761 2.135-22.528-5.281-43.728-20.343-58.191l-129.505-124.366c-12.564-12.046-29.643-18.68-48.109-18.68zM373.304 201.5c-3.292 0-7.907-0.676-11.239-3.851l-129.48-124.338c-7.363-7.075-5.865-25.131 8.090-39.644 8.155-8.505 18.649-13.551 28.079-13.551 3.292 0 7.907 0.652 11.224 3.848l129.493 124.342c4.475 4.291 4.552 11.106 4.214 14.777-0.807 8.505-5.281 17.557-12.279 24.843-8.161 8.502-18.671 13.576-28.101 13.576zM353.795-118.9c-23.996 0-48.24 10.901-66.517 29.938-33.401 34.726-36.368 86.311-6.594 114.952l129.517 124.366c28.939 27.679 82.292 22.373 114.614-11.211 33.417-34.804 36.355-86.388 6.569-115.005l-129.468-124.366c-12.589-12.040-29.68-18.674-48.122-18.674zM458.327 115.76c-4.785 0-8.571-1.3-11.248-3.848l-129.48-124.342c-7.363-7.075-5.868-25.104 8.090-39.619 8.167-8.505 18.677-13.579 28.107-13.579 3.289 0 7.907 0.676 11.236 3.851l129.44 124.338c7.388 7.075 5.89 25.131-8.065 39.669-8.152 8.484-18.649 13.529-28.079 13.529zM438.818-204.612c-23.983 0-48.24 10.901-66.517 29.916-15.413 16.049-24.973 36.209-26.909 56.785-2.135 22.528 5.281 43.728 20.343 58.191l129.465 124.366c28.979 27.732 82.317 22.398 114.651-11.236 15.413-16.052 24.961-36.212 26.897-56.789 2.135-22.528-5.294-43.753-20.365-58.216l-129.452-124.342c-12.58-12.043-29.656-18.677-48.112-18.677zM543.325 30.048c-4.772 0-8.558-1.3-11.236-3.848l-129.44-124.342c-4.487-4.291-4.565-11.106-4.226-14.777 0.807-8.505 5.281-17.557 12.279-24.843 8.18-8.505 18.69-13.579 28.12-13.579 3.292 0 7.894 0.652 11.211 3.851l129.452 124.338c4.499 4.295 4.58 11.109 4.239 14.777-0.807 8.505-5.278 17.585-12.276 24.871-8.173 8.477-18.68 13.551-28.123 13.551zM588.471 183.457l149.304-149.346-37.672-37.662-149.304 149.346 37.672 37.662zM684.924 273.849l141.665-141.665-37.665-37.665-141.665 141.665 37.665 37.665z"  horiz-adv-x="1024" />

    
    <glyph glyph-name="nv" unicode="&#58900;" d="M730.195 69.926h-181.879v74.7c163.723 18.071 291.082 156.844 291.082 325.381 0 180.816-146.58 327.397-327.397 327.397-180.816 0-327.396-146.58-327.396-327.397 0-168.499 127.297-307.244 290.962-325.37v-74.715l-182.921-0.023c-19.65-0.505-35.429-16.579-35.429-36.353 0-19.771 15.779-35.847 35.429-36.352v-0.023h182.919v-180.139c-0.030-0.596-0.046-1.195-0.046-1.798 0-20.089 16.286-36.374 36.374-36.374 20.091 0 36.375 16.286 36.375 36.374h0.046v181.942h181.834c0.016 0 0.031-0.001 0.046-0.001 20.091 0 36.375 16.286 36.375 36.374 0.001 20.090-16.284 36.375-36.374 36.375zM257.216 470.205c0 140.678 114.042 254.72 254.719 254.72 140.679 0 254.721-114.042 254.721-254.72s-114.042-254.72-254.721-254.72c-140.677 0-254.719 114.042-254.719 254.72z"  horiz-adv-x="1024" />

    
    <glyph glyph-name="iconsg" unicode="&#58890;" d="M552.866 483.658c-24.826 27.662-60.312 43.546-97.342 43.546h-73.891c-37.030 0-72.517-15.884-97.357-43.546l-119.025-132.715c-5.943-6.637-5.662-16.788 0.581-23.077l40.53-40.771c3.273-3.278 7.605-5.202 12.322-4.884 4.604 0.152 8.936 2.208 11.956 5.703l85.415 98.332v-433.443c0-9.267 7.443-16.757 16.625-16.757h57.305c9.164 0 16.621 7.491 16.621 16.757l-0 252.483h24.028v-252.484c0-9.267 7.438-16.757 16.621-16.757h57.256c9.182 0 16.604 7.491 16.57 16.757l0 433.427 85.436-98.316c3.055-3.495 7.407-5.55 12.004-5.703 4.451-0.348 9.050 1.622 12.288 4.884l40.485 40.771c6.293 6.304 6.51 16.439 0.563 23.077l-118.991 132.716zM852.85 830.956h-85.636c-10.289 0-18.644-8.351-18.644-18.683 0-10.291 8.338-18.661 18.644-18.661h66.976v-177.062h-45.524c-10.326 0-18.643-8.373-18.643-18.681 0-10.292 8.316-18.665 18.643-18.665h45.523v-177.041l-45.523-0c-10.326 0-18.643-8.355-18.643-18.665 0-10.309 8.316-18.676 18.643-18.676h45.523v-177.028l-45.523-0c-10.326 0-18.643-8.311-18.643-18.661 0-10.348 8.316-18.681 18.643-18.681h45.523v-177.062h-66.976c-10.306 0-18.644-8.35-18.644-18.66 0-10.331 8.338-18.681 18.644-18.681h85.619c10.288 0 18.605 8.351 18.622 18.681v857.565c0 10.31-8.315 18.661-18.604 18.661zM418.594 551.403c51.278 0 93.024 42.043 93.024 93.685 0 51.642-41.746 93.665-93.024 93.665-51.293 0-93.021-42.023-93.021-93.665-0-51.658 41.727-93.685 93.021-93.685z"  horiz-adv-x="1024" />

    
    <glyph glyph-name="iconfontlove" unicode="&#58982;" d="M735.12373 859.160977c-88.00945 0-169.840176-44.153616-223.698828-116.945479C457.595926 815.02885 375.776456 859.160977 287.720957 859.160977c-158.651346 0-287.72198-141.111878-287.72198-314.589908 0-103.485933 46.227858-176.081321 83.393315-234.416937 108.002806-169.4329 379.552455-380.270816 391.051347-389.163347 11.088546-8.568143 24.043602-12.853749 36.963866-12.853749 12.95608 0 25.8876 4.285606 36.953633 12.853749 11.520381 8.892531 283.093567 219.730447 391.062604 389.163347 37.177737 58.335616 83.427084 130.931005 83.427084 234.416937C1022.850827 718.049099 893.768937 859.160977 735.12373 859.160977L735.12373 859.160977 735.12373 859.160977 735.12373 859.160977zM886.888226 350.19508C784.085862 188.871881 511.408529-21.839145 511.408529-21.839145S238.759849 188.871881 135.929856 350.19508c-37.928844 59.550281-71.895447 116.160603-71.895447 194.375989 0 135.062092 100.140745 244.587578 223.686549 244.587578 91.304496 0 169.688727-59.904345 204.456578-145.662521l0 0.425695 0.090051 0c2.593058-8.936533 10.147104-15.459087 19.139919-15.459087 9.021467 0 16.57449 6.522554 19.147082 15.459087l0.26913 0c34.850739 85.506443 113.118314 145.236825 204.298989 145.236825 123.519198 0 223.682455-109.526509 223.682455-244.587578C958.812325 466.355683 924.844699 409.7515 886.888226 350.19508L886.888226 350.19508 886.888226 350.19508 886.888226 350.19508zM886.888226 350.19508"  horiz-adv-x="1039" />

    
    <glyph glyph-name="aihao" unicode="&#58930;" d="M512 11.02848c-1.36192 0-2.66752 0.5376-3.62496 1.5104L162.2528 360.38144c-42.14784 43.86816-65.32608 101.40672-65.32608 162.06336 0 129.0496 104.99072 234.0352 234.04032 234.0352 70.90688 0 136.51456-31.11424 181.03296-85.60128 44.52352 54.48704 110.14144 85.60128 181.04832 85.60128 62.40768 0 121.14944-24.3712 165.40672-68.62848 44.25216-44.25728 68.61312-102.99904 68.61312-165.41184 0-64.27136-25.41056-124.04736-71.54688-168.31488l-339.90144-341.59104C514.66752 11.57632 513.36192 11.02848 512 11.02848zM330.97216 713.4464c-105.3184 0-191.0016-85.6832-191.0016-191.0016 0-49.47456 18.91328-96.41984 53.25824-132.1984l318.77632-320.3584 313.11872 314.68544c38.02624 36.49024 58.92096 85.4272 58.92096 137.87136 0 105.3184-85.67808 191.0016-190.99136 191.0016-77.32224 0-146.5344-46.1312-176.32768-117.52448-0.7936-1.90464-2.6624-3.1488-4.72576-3.1488l0 0c-2.06848 0-3.93216 1.24416-4.72576 3.1488C477.48608 667.3152 408.28416 713.4464 330.97216 713.4464z"  horiz-adv-x="1024" />

    
    <glyph glyph-name="jiesuo1" unicode="&#58936;" d="M830.472843 423.968293 264.509814 423.968293 264.509814 541.865447c0 143.032624 116.342752 259.410168 259.377422 259.410168 143.03467 0 259.424494-116.377544 259.424494-259.410168 0-13.046131 10.54517-23.557532 23.601534-23.557532 12.988826 0 23.560602 10.512425 23.560602 23.558555 0 169.07986-137.551796 306.574351-306.58663 306.574351-169.034834 0-306.541605-137.494491-306.541605-306.574351l0-117.898177c-52.04433 0-94.326319-42.304502-94.326319-94.349855l0-282.95849c0-51.999304 42.281989-94.304829 94.326319-94.304829l613.128235 0c52.046377 0 94.349855 42.305525 94.348831 94.304829L924.822698 329.618439C924.822698 381.664815 882.51922 423.968293 830.472843 423.968293zM877.637026 46.659949c0-26.0237-21.166065-47.187719-47.164183-47.187719L217.345632-0.52777c-25.998117 0-47.162136 21.165042-47.162136 47.187719L170.183496 329.618439c0 26.001187 21.162995 47.176462 47.162136 47.176462l23.543206 0c0.013303 0 0.025583-0.001023 0.039909-0.001023s0.026606 0.001023 0.039909 0.001023l589.505211 0c25.998117 0 47.164183-21.174252 47.164183-47.176462L877.638049 46.659949zM571.062676 235.303376c-17.442254 0-32.679283-9.473769-40.839127-23.557532l-77.04677 0c-13.05534 0-23.604604-10.570753-23.604604-23.558555 0-13.05841 10.547217-23.604604 23.604604-23.603581l77.053933 0c8.16189-14.09195 23.394826-23.560602 40.831964-23.560602 26.067702 0 47.186695 21.073968 47.186695 47.165206C618.249371 214.231455 597.132424 235.303376 571.062676 235.303376z"  horiz-adv-x="1024" />

    
    <glyph glyph-name="aixin" unicode="&#58891;" d="M604.696818 649.287744c-62.301221 0-120.224088-31.255373-158.350441-82.78411-38.104678 51.543188-96.02032 82.784111-158.350441 82.78411-112.305482 0-203.672899-99.892923-203.672899-222.689113 0-73.254329 32.722049-124.645791 59.028293-165.936696 76.455006-119.935088 268.683497-269.189247 276.818853-275.482227a42.641981 42.641981 0 0 1 26.161744-9.096282 42.613081 42.613081 0 0 1 26.168969 9.096282c8.149806 6.29298 200.385522 155.547139 276.811628 275.482227 26.327919 41.29813 59.057193 92.682368 59.057193 165.936696 0.007225 122.79619-91.367417 222.689113-203.672899 222.689113z m92.465618-358.952713c-68.673675-107.768179-250.823284-248.518507-250.823284-248.518507S264.203994 182.566852 195.508643 290.335031c-25.330869 39.788104-48.017385 77.596557-48.017385 129.847796 0 90.218641 66.896324 163.38627 149.427559 163.386269 60.993495 0 113.353108-40.012079 136.581501-97.299146v0.289h0.065025c1.734001-5.975079 6.777055-10.324533 12.781034-10.324532 6.025654 0 11.075933 4.356678 12.795484 10.324532h0.1734c23.286192 57.113667 75.56633 97.017371 136.473125 97.017371 82.516785 0 149.434784-73.167629 149.434785-163.386269-0.007225-52.258463-22.700967-90.066916-48.060735-129.855021zM919.533648 390.62533c3.092302 4.949129 6.199055 2.810527 9.291357 8.048656 22.997192 38.986129 44.599958 86.309913 44.599958 148.098158 0 132.275397-98.426247 239.884626-219.394511 239.884626-49.014436 0-95.463995-18.019163-132.976222-49.325111l39.809779-47.20096c24.355493 16.263487 52.915939 25.735469 83.557186 25.735469 88.88924 0 160.965893-78.817583 160.965893-176.001129 0-40.56118-12.723234-73.030353-30.034347-104.061751M643.025471 715.974543m-30.894123 0a30.894123 30.894123 0 1 1 61.788246 0 30.894123 30.894123 0 1 1-61.788246 0ZM901.919086 416.700374m-32.700374 0a32.700374 32.700374 0 1 1 65.400748 0 32.700374 32.700374 0 1 1-65.400748 0Z"  horiz-adv-x="1024" />

    
    <glyph glyph-name="cuo" unicode="&#58986;" d="M550.355563 383.985674l273.209452 274.493701c10.595312 10.638291 10.552334 27.868721-0.086981 38.464033-10.659781 10.616802-27.869744 10.552334-38.464033-0.086981l-273.03549-274.297226-273.014001 274.27676c-10.595312 10.659781-27.804253 10.70276-38.464033 0.086981-10.638291-10.595312-10.682293-27.804253-0.086981-38.464033l273.209452-274.471189-273.209452-274.471188c-10.595312-10.638291-10.55131-27.868721 0.086981-38.464034 5.308913-5.2864 12.248975-7.919367 19.189038-7.919366a27.129894 27.129894 0 0 1 19.276018 8.006347l273.03549 274.297227 273.03549-274.297227c5.307889-5.351891 12.291954-8.006348 19.276019-8.006347 6.940063 0 13.880125 2.631944 19.189038 7.919366 10.638291 10.595312 10.682293 27.804253 0.086981 38.464034L550.355563 383.985674z"  horiz-adv-x="1024" />

    
    <glyph glyph-name="xinxingleft" unicode="&#58894;" d="M-298.031 886.312c-149.46 0.025-292.767-143.433-292.767-348.395 0-230.724 205.402-316.98 343.142-409.219 133.604-89.46 228.081-211.773 243.018-263.913 12.765 51.014 119.291 176.932 243.018 266.509 135.229 97.922 343.141 178.461 343.141 409.186 0 199.342-143.277 341.099-292.102 341.099-113.733 0-219.866-20.644-294.082-168.314-85.946 146.732-181.479 173.027-293.364 173.041z"  horiz-adv-x="1024" />

    
    <glyph glyph-name="xinxingleft1" unicode="&#58897;" d="M731.282 896.978c-149.46 0.025-292.767-143.433-292.767-348.395 0-230.724 205.402-316.98 343.142-409.219 133.604-89.46 228.081-211.773 243.018-263.913 12.765 51.014 119.291 176.932 243.018 266.509 135.229 97.922 343.141 178.461 343.141 409.186 0 199.342-143.277 341.099-292.102 341.099-113.733 0-219.866-20.644-294.082-168.314-85.946 146.732-181.479 173.027-293.364 173.041z"  horiz-adv-x="1024" />

    
    <glyph glyph-name="zhanghu" unicode="&#58881;" d="M853.416 710.656c32.362 0 58.224-8.222 77.587-24.666 19.362-16.445 29.042-41.378 29.042-74.798v-441.635c0-14.324-2.652-27.85-7.958-40.584-5.305-12.73-12.597-23.871-21.882-33.421-9.285-9.547-20.161-17.109-32.624-22.679-12.468-5.57-25.597-8.355-39.389-8.355h-693.883c-13.792 0-26.788 2.652-38.991 7.958-12.203 5.308-22.812 12.335-31.83 21.089-9.016 8.754-16.18 18.964-21.485 30.636-5.304 11.671-7.956 24.136-7.956 37.4l-0 451.181c0 28.647 8.754 52.12 26.262 70.424 17.503 18.3 42.173 27.451 74 27.451h689.106zM287.65 563.447c-10.078 0-19.628-1.86-28.647-5.571-9.019-3.715-16.976-8.886-23.87-15.519-6.899-6.629-12.335-14.59-16.312-23.871-3.98-9.284-5.969-19.229-5.969-29.841 0-10.61 1.989-20.422 5.969-29.441 3.977-9.019 9.414-16.976 16.312-23.87 6.895-6.898 14.851-12.334 23.87-16.315 9.018-3.976 18.569-5.964 28.647-5.964 11.14 0 21.351 1.987 30.635 5.964 9.285 3.981 17.242 9.418 23.871 16.315 6.632 6.895 11.937 14.851 15.917 23.87 3.976 9.019 5.969 18.832 5.969 29.441 0 21.752-7.164 39.654-21.488 53.713-14.324 14.057-32.624 21.089-54.905 21.089v0zM412.579 288.118c0 10.082-1.989 19.762-5.968 29.048-3.976 9.284-9.281 17.242-15.914 23.87-6.633 6.632-14.589 11.937-23.87 15.918-9.285 3.976-18.968 5.964-29.046 5.964h-99.466c-20.691 0-38.197-7.293-52.521-21.882-14.32-14.586-21.484-32.226-21.484-52.918v-74.798h248.269v71.615l-0 3.183zM781.801 209.341c10.609 0 18.437 2.652 23.476 7.959 5.039 5.305 7.558 11.668 7.558 19.098 0 7.425-2.918 13.925-8.753 19.495-5.836 5.57-14.058 8.355-24.668 8.355h-237.128c-10.61 0-18.57-2.785-23.875-8.355-5.304-5.57-7.956-12.070-7.956-19.495 0-7.43 2.652-13.793 7.956-19.098 5.305-5.307 13-7.959 23.078-7.959h240.311zM782.598 311.992c10.609 0 18.3 2.654 23.077 7.958 4.773 5.305 7.16 11.672 7.16 19.098 0 7.956-2.254 14.589-6.765 19.894-4.508 5.304-12.066 7.956-22.675 7.956l-243.496 0c-10.613 0-18.304-2.652-23.078-7.956-4.773-5.305-7.159-11.938-7.159-19.894 0-7.426 2.254-13.793 6.761-19.098 4.508-5.304 12.070-7.958 22.679-7.958l243.496-0zM783.395 413.054c7.958 0 14.851 2.651 20.687 7.956 5.835 5.304 8.753 11.667 8.753 19.097 0 7.426-2.918 13.395-8.753 17.903-5.836 4.511-12.73 6.765-20.687 6.765h-161.538c-7.956 0-14.719-2.254-20.289-6.765-5.57-4.508-8.354-10.476-8.354-17.903 0-7.429 2.784-13.792 8.354-19.097s12.333-7.956 20.289-7.956l161.538 0zM783.395 413.054z"  horiz-adv-x="1024" />

    
    <glyph glyph-name="jilu" unicode="&#58895;" d="M934.47 554l-301.3-301.29-219.968-81.902 82.754 219.107 301.28 301.29c30.32 30.31 79.476 30.31 109.795 0l27.438-27.44c30.302-30.309 30.302-79.455 0-109.765zM479.83 237.502l132.041 49.164 7.391 7.392-82.317 82.328-7.466-7.466-49.65-131.418z m84.552 166.321l82.318-82.326L851.944 526.75l-82.336 82.318-205.226-205.245z m342.8 233.044l-27.438 27.44c-15.122 15.12-39.757 15.13-54.879 0l-27.799-27.801 82.317-82.318 27.799 27.79c15.123 15.133 15.123 39.758 0 54.89zM200.264 151.223v38.81H391.05l-14.649-38.81H200.264z m220.101 116.428H200.264V306.46h234.768l-14.667-38.809zM200.264 539.314h194.045v-38.809H200.264v38.81z m194.045-155.236H200.264v38.81h194.045v-38.81z m232.854-194.045v-38.81H438.52l104.263 38.81h84.381zM530.14 759.34V616.93c0-21.431 17.377-38.809 38.81-38.809h60.165l-38.81-38.809h-21.354c-42.867 0-77.62 34.754-77.62 77.618V791.573H142.05c-21.432 0-38.81-17.377-38.81-38.81v-737.371c0-21.432 17.378-38.81 38.81-38.81h543.327c21.431 0 38.81 17.377 38.81 38.81V288.979l38.807 38.818v-312.405c0-42.864-34.754-77.618-77.617-77.618H142.051c-42.863 0-77.618 34.754-77.618 77.618V752.764c0 42.864 34.754 77.618 77.618 77.618H517.805L692.862 641.85l-27.136-27.136L530.14 759.34z"  horiz-adv-x="1024" />

    
    <glyph glyph-name="zhuyi" unicode="&#58911;" d="M512-128a512 512 0 1 0 512 512 512 512 0 0 0-512-512zM585.142857 603.428571a73.142857 73.142857 0 0 1-146.285714 0v-219.428571a73.142857 73.142857 0 0 1 146.285714 0V603.428571zM512 237.714286a73.142857 73.142857 0 1 1 73.142857-73.142857 73.142857 73.142857 0 0 1-73.142857 73.142857z"  horiz-adv-x="1024" />

    
    <glyph glyph-name="tongzhi" unicode="&#58901;" d="M884.453005 253.227327h-48.750298V573.029279a322.72697 322.72697 0 1 1-645.941442 0v-319.801952h-48.750298A101.888122 101.888122 0 0 1 37.660336 150.851702v-5.362533a101.888122 101.888122 0 0 1 101.888122-101.888122h282.751726v-81.9005a89.700547 89.700547 0 0 1 178.913592 0v81.412997h282.751726a101.888122 101.888122 0 0 1 101.888122 101.888122v5.362533a101.888122 101.888122 0 0 1-101.400619 102.863128zM238.024059 573.029279a273.976672 273.976672 0 1 0 548.440848 0v-319.801952H238.024059z m314.926922-529.428232v-81.9005a40.95025 40.95025 0 0 0-81.412997 0v81.412997h81.412997z m384.639848 102.375625a53.137824 53.137824 0 0 0-53.137824-53.137824H139.548458A53.137824 53.137824 0 0 0 86.410634 145.489169v5.362533a53.137824 53.137824 0 0 0 53.137824 53.137824h744.904547a53.137824 53.137824 0 0 0 53.137824-53.137824z"  horiz-adv-x="1024" />

    
    <glyph glyph-name="zuobiao" unicode="&#58942;" d="M894.986623 495.960688a382.986623 382.986623 0 0 1-765.973246 0c0-82.747475 26.464282-159.065247 71.099463-221.684958H199.740104l4.1001-5.031941c7.175175-9.691146 14.723087-19.009555 22.643734-27.955228l285.795614-352.142688 286.16835 353.260897c7.361543 8.2002 14.257166 16.866321 20.966421 25.71881l4.938757 6.15015H823.980344a380.936573 380.936573 0 0 1 71.006279 221.684958m-382.986623-250.944763a246.285558 246.285558 0 1 0 0 492.571117 246.285558 246.285558 0 0 0 0-492.571117"  horiz-adv-x="1024" />

    
    <glyph glyph-name="music" unicode="&#58886;" d="M237.78125-37.875C157.2414768981934-37.875 90.125 27.323863861084078 90.125 109.78125s65.19886386108399 147.65625 147.65625 147.65625c32.59943151855468 0 63.28125-11.505681518554685 90.1278407592773-30.68181848144532l7.67045462036133-5.752840759277342V694.6534092407227c0 28.764204620361326 23.011363861083982 51.77556848144531 49.857954620361326 51.7755676574707l492.8267046203613 57.52840924072265h3.835226898193359C908.9460231018065 805.875 933.875 782.8636361389159 933.875 754.0994315185546v-554.1903407592772c0-40.269886138916014-15.34090924072266-76.70454537963865-44.105113861083986-103.55113613891601-26.846590759277337-26.846590759277337-65.19886386108399-42.1875-103.55113613891601-42.1875-80.53977310180665 0-147.65625 65.19886386108399-147.65625 147.65625 0 80.53977310180665 65.19886386108399 147.65625 147.65625 147.65625 32.59943151855468 0 65.19886386108399-11.505681518554685 90.1278407592773-30.68181848144532l7.67045462036133-5.752840759277342V570.0085231018065l-498.5795453796386-53.69318234252929v-406.5340907592774c-1.9176138610839846-82.45738613891601-67.11647689819334-147.65625-147.65625-147.65625z m0 243.53693151855458c-53.693181518554674 0-97.79829537963866-44.105113861083986-97.79829537963866-97.79829537963866s44.105113861083986-97.79829537963866 97.79829537963866-97.79829537963866 97.79829537963866 44.105113861083986 97.79829537963866 97.79829537963866c-1.9176138610839846 55.61079537963866-44.105113861083986 97.79829537963866-97.79829537963866 97.79829537963866z m548.4375 92.04545462036134c-53.693181518554674 0-97.79829537963866-44.105113861083986-97.79829537963866-97.79829537963866s44.105113861083986-97.79829537963866 97.79829537963866-97.79829537963866 97.79829537963866 44.105113861083986 97.79829537963866 97.79829537963866-44.105113861083986 97.79829537963866-97.79829537963866 97.79829537963866z m-402.69886386108396 268.46590924072257l498.5795453796386 53.693181518554674V756.0170453796386l-492.8267046203613-57.52840924072265h-5.752840759277342v-132.3153407592773z"  horiz-adv-x="1024" />

    
    <glyph glyph-name="yijianfankui" unicode="&#59115;" d="M973.312 643.584l-109.568 117.76-339.456-353.792 112.64-114.176 336.384 350.208zM514.048 391.68l-46.592-154.112 154.112 42.496-107.52 111.616zM877.568 770.56s72.192 97.792 137.728 30.208c65.536-67.584-31.232-142.848-31.232-142.848l-106.496 112.64zM921.6 108.544s-112.64 72.192-257.024 83.968M915.456 191.488H294.912c-20.48 0-37.376 16.896-37.376 37.376S274.432 266.24 294.912 266.24h89.6c21.504 0 38.912 17.408 38.912 38.912 0 21.504-17.408 38.912-38.912 38.912H301.056c-64.512 0-117.76-52.736-117.76-117.76s52.736-117.76 117.76-117.76h115.2v0.512h384v-0.512h121.344c20.48 0 37.376-16.896 37.376-37.376s-16.896-37.376-37.376-37.376H349.696c-21.504 0-38.912-17.408-38.912-38.912 0-21.504 17.408-38.912 38.912-38.912h565.76c64.512 0 117.76 52.736 117.76 117.76s-53.248 117.76-117.76 117.76zM915.456 191.488H294.912c-20.48 0-37.376 16.896-37.376 37.376S274.432 266.24 294.912 266.24h89.6c21.504 0 38.912 17.408 38.912 38.912 0 21.504-17.408 38.912-38.912 38.912H301.056c-64.512 0-117.76-52.736-117.76-117.76s52.736-117.76 117.76-117.76h115.2v0.512h384v-0.512h121.344c20.48 0 37.376-16.896 37.376-37.376s-16.896-37.376-37.376-37.376H349.696c-21.504 0-38.912-17.408-38.912-38.912 0-21.504 17.408-38.912 38.912-38.912h565.76c64.512 0 117.76 52.736 117.76 117.76s-53.248 117.76-117.76 117.76z"  horiz-adv-x="1196" />

    
    <glyph glyph-name="saoma" unicode="&#58967;" d="M0 363.52v42.752h1024V363.52H0zM960 790.016c0 23.552-19.2 42.752-42.752 42.752h-234.752V875.52h234.752c47.104 0 85.248-38.144 85.248-85.248v-256H960V790.016z m-896 0v-256H21.248v256C21.248 837.376 59.648 875.52 106.752 875.52h234.752v-42.752H106.752c-23.552 0-42.752-18.944-42.752-42.752zM64-20.48c0-23.552 19.2-42.752 42.752-42.752h234.752v-43.264l-234.752 0.512c-47.104 0-85.248 38.144-85.248 85.248v256H64V-20.48z m896 0V235.52h42.752v-256c0-47.104-35.84-87.04-82.944-87.04l-237.056 0.512v43.776h234.752c23.296 0 42.496 19.2 42.496 42.752z"  horiz-adv-x="1024" />

    
    <glyph glyph-name="arrow-right" unicode="&#58892;" d="M329.525 704.453l56.285 58.261 393.996-392.021-393.996-392.021-56.285 58.261 331.786 333.761z"  horiz-adv-x="1024" />

    
    <glyph glyph-name="zhinanzhen" unicode="&#58927;" d="M512 865.745C244.364 865.745 30.255 651.636 30.255 384S244.364-97.745 512-97.745 993.745 118.69 993.745 384 779.636 865.745 512 865.745z m0-905.309c-235.055 0-423.564 188.51-423.564 423.564S276.946 807.564 512 807.564 935.564 619.054 935.564 384 747.054-39.564 512-39.564z m235.055 672.582l-351.419-88.436c-20.945-6.982-37.236-18.618-44.218-44.218l-88.436-337.455c-2.327-13.964 16.29-32.582 30.254-30.254l335.128 90.763c20.945 4.655 34.909 16.291 44.218 44.218l102.4 337.455c4.654 11.636-16.291 30.254-27.927 27.927zM716.8 558.545l-88.436-262.981c-2.328-13.964-16.291-25.6-30.255-30.255l-262.982-72.145c-13.963-2.328-18.618 2.327-13.963 13.963l74.472 265.31c2.328 13.963 16.291 25.6 30.255 30.254l276.945 72.145c11.637 2.328 16.291-2.327 13.964-16.29zM512 442.182c-32.582 0-58.182-25.6-58.182-58.182s25.6-58.182 58.182-58.182 58.182 25.6 58.182 58.182-25.6 58.182-58.182 58.182z"  horiz-adv-x="1024" />

    
    <glyph glyph-name="arrow-left" unicode="&#58933;" d="M512.18365185 227.99122297999997l-403.42645488 403.41955064c-16.9429169 16.9567253-44.44374271 16.9567253-61.38804048 0-16.95810612-16.9429169-16.95810614-44.44374272 0-61.38804046l434.11978469-434.11978467c16.9429169-16.9567253 44.44374271-16.9567253 61.38804047 0l434.11840383 434.11978467c8.47836265 8.4728393 12.71892482 19.58446539 12.71892481 30.69332981s-4.24056217 22.22049053-12.71892479 30.69332982c-16.9429169 16.9567253-44.44374271 16.9567253-61.38804049 1e-8l-403.42507402-403.41955068z"  horiz-adv-x="1024" />

    
    <glyph glyph-name="jiesuo" unicode="&#58896;" d="M759.24829063 165.81818155999997h-174.54545438v174.54545438c20.7127275 14.48727281 52.945455 40.43636344 79.79636344 62.9527275 49.42545469 41.425455 116.45090906 104.11636406 142.7781825 144.49454531 19.81090875 30.48727313 42.18181781 73.30909125 38.92363594 134.60363625a194.53090875 194.53090875 0 0 1-57.10545469 127.85454562C754.273745 844.9163634399999 708.80465469 864 661.00829094 864c-65.6872725 0-119.88363656-47.185455-148.59636375-78.42909094C484.39738156 817.0181821900001 431.13192688 864 362.91374562 864 315.1464725 864 269.64829063 844.9163634399999 234.82647313 810.26909062A194.61818156 194.61818156 0 0 1 177.75010906 682.414545c-3.2872725-62.13818156 20.65454531-106.58909062 38.9527275-134.63272687 26.065455-39.9127275 91.08363656-100.68363656 143.27272688-144.29090907C386.593745 381.23636344 418.68101844 354.79272749999996 439.24829094 340.36363594v-407.27272688c0-14.77818187 3.4327275-29.09090906 18.06545437-29.09090906h305.07636375a26.64727312 26.64727312 0 0 1 26.50181813 26.76363656v204.27636375a26.64727312 26.64727312 0 0 1-26.50181813 26.76363563L759.24829063 165.81818155999997zM291.03010906 564.8872725c-20.39272687 32.2327275-28.36363594 60.04363594-26.67636375 92.97454594 3.37454531 65.59999969 55.59272719 118.95272719 116.42181844 118.95272719 63.09818156 0 111.33090938-73.83272719 111.7672725-74.53090969 4.2472725-6.69090937 11.40363656-10.73454562 19.08363656-10.85090907h0.37818188a23.01090938 23.01090938 0 0 1 19.02545437 10.26909094c0.52363594 0.72727312 51.84 75.14181844 112.11636375 75.14181844 60.82909125 0 113.07636375-53.38181813 116.42181844-118.98181781 1.71636375-32.84363625-6.28363594-60.68363625-26.64727313-92.97454594-16.00000031-25.3672725-61.44-72.64000031-113.07636375-117.6727275-30.02181844-26.18181844-54.3127275-44.91636375-72.4072725-57.39636281a1.65818156 1.65818156 0 0 0-0.20363625-0.11636438c-22.51636406-15.53454562-27.60727312-26.67636375-34.9672725-19.86909094-0.75636375 2.79272719-12.56727281 4.50909094-35.49090937 20.39272782l-0.26181844 0.14545406c-18.12363656 12.56727281-42.32727281 31.2727275-72.20363625 57.25090969-51.95636344 45.14909062-97.48363594 92.27636344-113.28 117.26545406zM497.43010906 311.27272688000005c13.73090906-6.28363594 8.43636375-2.38545469 14.83636406-2.38545375 6.02181844 0 0.66909094-3.66545437 14.25454501 2.38545375v-349.09090875h-29.09090907V311.27272688000005z m238.45818188-353.74545376H593.1392v48.61090875h66.03636375a26.61818156 26.61818156 0 0 1 26.50181812 26.76363657 26.64727312 26.64727312 0 0 1-26.50181812 26.76363656h-66.03636375v48.63999937h142.74909094v-150.77818125z"  horiz-adv-x="1024" />

    
    <glyph glyph-name="nan" unicode="&#58935;" d="M309.394286 684.860952c67.730286 68.169143 136.094476 135.850667 203.337143 204.556191 66.950095-68.949333 135.216762-136.582095 203.239619-204.409905-21.113905-20.041143-41.20381-41.155048-61.927619-61.586286-32.719238 33.694476-65.877333 66.901333-98.694096 100.449524 0.048762-59.099429 0.585143-118.247619-0.146285-177.347047 51.102476-10.093714 102.107429-26.331429 144.871619-57.051429 70.217143-48.176762 120.246857-124.68419 135.704381-208.457143 14.043429-68.900571 4.144762-142.09219-25.648762-205.58019-37.400381-78.945524-107.178667-142.09219-190.073905-170.179048-123.270095-44.080762-270.872381-5.266286-355.523048 94.890667C211.090286 60.952381 181.394286 142.140952 183.393524 223.085714c0.633905 87.966476 38.66819 175.445333 103.521524 235.081143 49.347048 47.689143 114.834286 78.116571 182.759619 86.796191-0.390095 59.587048 0.292571 119.222857-0.24381 178.809904-32.280381-34.03581-65.926095-66.80381-98.742857-100.352-20.333714 20.626286-40.667429 41.20381-61.293714 61.44m163.888762-225.962666c-49.005714-8.094476-95.036952-31.841524-130.876953-66.121143-44.422095-44.617143-72.899048-106.203429-72.996571-169.593905-2.145524-61.830095 21.455238-123.562667 62.707809-169.398857 39.253333-43.203048 94.256762-72.411429 152.478477-78.360381 62.415238-7.94819 127.463619 10.581333 176.956952 49.249524 55.198476 42.276571 90.453333 109.421714 94.061714 178.809905 3.900952 57.246476-13.994667 115.419429-48.664381 161.060571-36.766476 51.102476-95.622095 84.504381-157.354666 94.500571-12.385524 2.194286-25.161143 0.78019-37.400381 4.047239-12.824381-2.535619-25.990095-2.486857-38.912-4.193524z"  horiz-adv-x="1024" />

    
    <glyph glyph-name="zhifu" unicode="&#58951;" d="M136.324354 896h683.432925c52.314558-12.329796 99.404626-48.134966 120.372245-98.359728 22.360816-44.442993 14.837551-95.225034 15.952109-143.08136 49.946122-28.839184 89.094966-77.740408 95.782313-136.394014v-500.018503c-11.075918-73.630476-71.401361-133.955918-144.683538-146.146395H149.629388c-40.263401 7.035646-79.063946 26.192109-106.161633 57.190748C18.041905-40.92517 3.970612-2.751565 0 35.90966V733.553197C3.761633 810.457687 61.022041 879.351293 136.324354 896m-23.196735-91.533061c-31.277279-28.142585-58.444626-66.52517-57.469388-110.341225 0.278639-206.820136-0.20898-413.709932 0.20898-620.530068 0-38.103946 21.315918-72.306939 47.159728-98.638367 23.057415-23.336054 51.687619-43.885714 84.706394-48.831565 220.891429-0.417959 441.782857 0.06966 662.604626-0.278639 38.730884-0.696599 73.421497 21.873197 99.613606 48.483265 26.610068 26.261769 48.901224 61.022041 47.995646 99.613606-0.13932 129.915646-0.13932 259.831293 0 389.746938 1.044898 37.337687-19.713741 71.331701-45.139592 97.105851-26.610068 28.212245-62.415238 52.314558-102.678639 51.408979-145.380136-0.557279-290.829932 0.696599-436.210068-0.696598-18.250884 11.006259-22.430476 37.407347-8.707483 53.568435 15.32517 12.608435 36.223129 5.990748 54.265034 6.478367 132.562721-0.417959 265.125442-0.13932 397.688163-0.139319 13.235374 0.06966 26.401088-1.323537 39.497143-3.065034 2.229116 2.925714 6.826667 8.777143 9.125442 11.772517 5.921088 57.469388-32.600816 107.55483-76.486531 139.807347-24.032653 17.832925-53.916735 26.192109-83.661496 25.56517-178.886531-0.06966-357.773061 0.13932-536.659592-0.06966-36.08381 0.487619-70.147483-16.579048-95.851973-40.96zM308.732517 491.972789h64.992653c48.343946-65.619592 95.573333-132.005442 144.474558-197.137415 47.090068 65.967891 94.040816 132.075102 141.966803 197.485714 21.455238-0.487619 42.840816-0.348299 64.296054-0.417959-49.528163-66.73415-99.683265-133.05034-148.65415-200.202449 42.562177-0.06966 85.194014 0 127.756191 0 0-11.633197-0.06966-23.266395 0-34.899592-52.732517 0.20898-105.465034-0.13932-158.197551 0.20898-0.278639-18.599184-0.417959-37.268027-0.27864-55.867211h160.217687V164.571429c-53.429116 0-106.788571 0.06966-160.217687 0v-116.749932c-19.156463 0.06966-38.312925 0.06966-57.399728 0-0.13932 38.939864-0.06966 77.810068-0.069659 116.749932-52.871837 0-105.743673-0.06966-158.615511 0.069659 0.06966 12.190476 0.20898 24.380952 0.27864 36.571429 52.802177-0.20898 105.534694 0 158.267211-0.13932 0.06966 18.599184 0.06966 37.198367 0.06966 55.797551-52.871837 0-105.674014-0.06966-158.476191 0 0 11.633197 0 23.196735-0.06966 34.829932 43.049796 0 86.099592 0 129.149388-0.06966C407.928163 358.086531 358.748299 425.308299 308.732517 491.972789z"  horiz-adv-x="1051" />

    
    <glyph glyph-name="yundong" unicode="&#58889;" d="M973.9 144c-21.7 29.7-52.7 57.1-80.1 81.3-11.9 10.5-23.2 20.4-32.7 29.7-9.5 9.2-31.9 43.5-75.2 169.5-27.8 80.7-53.1 166.9-66.7 213.2-5.9 20.1-8.6 29.2-9.9 32.9-3.6 10.1-13.5 22-40.1 22-38.8 0-111-24.5-132.5-39.3-4.9-3.4-15.2-6.8-27.2-6.8-11.8 0-33 3.4-41.3 25.8-3.9 10.6-7 21.4-10 31.9-4.8 16.8-9.3 32.6-16.7 45.3-13.5 23.1-32.5 28-46 28-5.7 0-11.8-0.9-18.2-2.6-11.5-3.1-28.8-13.3-76.7-67.3-26.8-30.2-60.7-71.3-100.8-122.1-68.2-86.1-131.6-172.1-132.2-172.9-7.1-9.7-5.6-23.3 3.5-31.1 35-30 152.5-122.6 278.5-211C516 53.8 636.4-14 707.8-30.9c58.9-14 106.1-20.8 144.3-20.8 38.7 0 69.2 7 93.1 21.3 24.4 14.6 41.4 36.2 52.1 66.1 12.1 34 4.2 70.4-23.4 108.3zM852-5.6c-34.6 0-78.3 6.4-133.7 19.5-142 33.7-498.1 304.5-600.9 388.8 6.8 9.1 15.9 21.3 26.7 35.6 46.2-40 172.6-135.6 300.4-224 125.8-87 292.4-194.4 371.4-211.7 15.6-3.4 30.4-6.1 44.1-8-2.5-0.2-5.2-0.2-8-0.2z m101.9 56.8c-2-5.5-4.4-11.1-7.4-16.5-15.5-0.4-61.5-0.2-120.5 12.8-55.9 12.3-182.1 85-355.1 204.7C335.4 345.8 211.1 440.8 172.1 475c18.3 24 39 50.8 60.2 77.7 122.1 155.1 152 175.5 157.3 178.1 2.8 0.7 4.6 0.8 5.7 0.8 1.9 0 3.3 0 6.3-5.2 4.5-7.7 8.2-20.9 12.2-34.7 3.1-10.8 6.6-23.1 11.1-35.4 13-35 44.6-55.8 84.4-55.8 20.1 0 39.5 5.4 53.2 14.9 13.8 9.5 76 31 105.9 31.2 1.7-5.7 4-13.5 6.5-22 8.6-29.2 21.8-74.1 37.3-123.6-13.6-4.6-31.1-9.5-43.3-12.9-8.4-2.4-15.1-4.3-19.6-5.7-10.5-3.4-16.3-14.6-12.9-25.2 2.7-8.5 10.6-13.9 19-13.9 2 0 4.1 0.3 6.1 1 3.8 1.2 10.5 3.1 18.2 5.3 16.6 4.7 31.9 9.1 44.5 13.3 4.8-14.8 9.8-29.8 14.8-44.6-3.6-1.8-9.1-4.1-17.2-6.6-13.4-4.2-29.2-7.8-41.9-10.6-6.8-1.5-12.6-2.8-17.5-4.1-10.7-2.8-17.1-13.7-14.4-24.4 2.3-9 10.4-15 19.4-15 1.6 0 3.3 0.2 5 0.6 4.3 1.1 9.8 2.3 16.3 3.8 24.5 5.5 46.8 10.9 63.7 18.4 4.4-12.2 8.5-23.5 12.5-33.9-17.5-6.7-43.5-13.2-65.6-17-10.9-1.9-18.2-12.3-16.3-23.1 1.7-9.7 10.1-16.6 19.7-16.6 1.1 0 2.3 0.1 3.5 0.3 12.6 2.2 46.5 8.7 73.5 19.3 24.3-58.1 39.2-77.8 49.2-87.5 10.3-10 21.9-20.3 34.3-31.2 47.7-41.9 106.9-94.2 90.7-139.5zM620.2 451.4c0 10.8-8.7 19.5-19.5 19.5s-19.5-8.7-19.5-19.5 8.7-19.5 19.5-19.5 19.5 8.8 19.5 19.5zM618 385.2c-10.9 0-19.8-8.9-19.8-19.8s8.9-19.8 19.8-19.8 19.8 8.9 19.8 19.8-8.9 19.8-19.8 19.8zM655.7 317.3c-10.8 0-19.5-8.7-19.5-19.5s8.7-19.5 19.5-19.5 19.5 8.7 19.5 19.5-8.8 19.5-19.5 19.5zM89.4 86H202c12.7 0 23 10.3 23 23s-10.3 23-23 23H89.4c-12.7 0-23-10.3-23-23s10.3-23 23-23zM429 30.5H86.4c-12.2 0-22-9.8-22-22s9.8-22 22-22H429c12.2 0 22 9.8 22 22s-9.8 22-22 22z"  horiz-adv-x="1024" />

    
    <glyph glyph-name="jinbi" unicode="&#58880;" d="M521.472 689.066667C351.303111 689.066667 213.333333 551.1111109999999 213.333333 380.913778c0-170.183111 137.969778-308.138667 308.138667-308.138667 170.197333 0 308.152889 137.955556 308.152889 308.138667 0 170.197333-137.955556 308.152889-308.152889 308.152889z m164.252444-276.238223l-75.164444-72.931555 16.967111-100.48c0.611556-1.578667 0.938667-6.684444 0.938667-8.490667 0-7.864889-6.357333-17.592889-14.222222-17.592889h-0.284445c-2.275556 0-4.551111 3.911111-6.656 5.034667l-92.515555 50.673778-92.814223-47.630222c-4.792889-2.503111-10.609778-1.607111-14.976 1.550222a14.606222 14.606222 0 0 0-5.632 14.136889l17.962667 103.210666-74.766222 73.329778a14.264889 14.264889 0 0 0 7.950222 24.277333l103.608889 14.776889 46.563555 93.923556c2.417778 4.835556 7.338667 8.035556 12.743112 8.035555h0.028444c5.418667 0 10.368-3.256889 12.743111-8.106666l46.051556-94.08 103.594666-15.331556a14.250667 14.250667 0 0 0 7.879111-24.305778zM864.469333-14.606222000000002c-35.768889 6.869333-71.68 12.245333-107.377777 16.455111 124.928 80.796444 202.666667 220.16 202.666666 372.110222 0 244.337778-198.798222 443.121778-443.136 443.121778S73.486222 618.296889 73.486222 373.959111c0-151.765333 78.748444-292.579556 204.572445-373.304889-68.124444-7.395556-110.094222-15.018667-111.288889-15.232a21.319111 21.319111 0 1 1 7.793778-41.941333c2.872889 0.540444 240.625778 43.662222 510.037333 22.656 0.312889-0.014222 0.625778-0.142222 0.938667-0.142222l0.341333 0.042666c56.092444-4.437333 113.536-11.562667 170.524444-22.528a21.333333 21.333333 0 0 1 8.064 41.884445z m-512 22.101333a20.622222 20.622222 0 0 1-4.906666 3.299556C206.990222 76.373333 116.152889 218.93688899999995 116.152889 373.959111c0 220.814222 179.655111 400.455111 400.469333 400.455111S917.091556 594.773333 917.091556 373.959111a400.568889 400.568889 0 0 0-235.477334-364.842667c-122.695111 9.102222-238.492444 5.361778-329.144889-1.621333z"  horiz-adv-x="1024" />

    
    <glyph glyph-name="maobi" unicode="&#58950;" d="M287.289227 57.363582c13.257632 9.973631 36.488894 18.244447 53.152156 18.244447h410.13517c16.663262 0 39.894524-8.270816 53.152156-18.244447l56.436156-44.881339c19.947262-14.960447 14.960447-28.218078-9.973631-28.218079h-604.499347c-24.934078 0-29.920893 13.257632-9.973631 28.218079l51.570971 44.881339z m0 0M471.193253 57.363582c41.47571 0 76.383418 43.178525 93.04668 44.88134 175.9981 24.934078 327.183751 172.714099 327.183752 373.646276 0 227.56907-179.40373 361.96983-380.335907 361.969831S148.996318 676.701746 148.996318 475.769569C148.996318 296.365839 270.261076 153.572633 441.27236 123.77337c19.947262-1.702815-11.554816-66.409787 29.920893-66.409788z m0 0M461.219622 73.905214c16.663262 0 61.422972 53.152156 78.086234 54.854971 174.416914 24.934078 307.236489 172.714099 307.236489 351.996199 0 197.648177-159.456468 356.983015-356.983015 356.983015C291.911153 837.739399 132.576315 678.282931 132.576315 480.756384c0-175.9981 127.832759-322.196936 297.262858-351.996199 19.704003-1.702815 11.433187-54.854971 31.380449-54.854971z m0 0M526.413113 303.298729c-58.138971 0-116.034683 24.2043-157.023874 71.274973-14.473928 16.663262-24.325929 31.502079-31.988598 48.28697-30.042523 62.15275-14.595558 137.563131 37.583561 183.052619 64.098824 55.828008 162.497209 49.016748 218.325217-14.960446 18.001188-21.528448 12.527854-21.528448 39.529636-26.150374 18.001188-5.108445 42.813636-17.514669 58.38223-35.394228 32.718375-37.705191 35.637487-91.952013 9.122224-132.941204-0.243259-0.364889-0.729778-0.851408-0.973037-1.216297-10.21689-15.082076-22.501485-28.826226-36.245635-40.867561-39.408006-34.299561-88.303124-51.084452-136.711724-51.084452z m-50.233044 322.561825c-31.745338 0-63.612305-10.946668-89.276161-33.448153-46.219266-40.259413-59.841786-106.79083-33.204894-161.889061 7.05452-15.568595 15.811854-28.704597 29.191115-44.151562 68.84238-79.059271 189.134101-87.330087 268.193373-18.487706 9.852001 8.635705 18.852595 18.122817 26.758522 28.582967 0.364889 0.729778 0.729778 1.459556 1.216296 2.067704 28.218078 35.029338 27.123411 85.140753-2.432592 119.075424-13.014372 14.960447-30.650671 25.420596-49.989785 29.677634l-5.594964 1.094667v0.24326c-20.068892 4.865186-23.231263 7.662668-42.448747 30.650671-26.636893 30.89393-64.463713 46.584155-102.412163 46.584155z m0 0M571.172823 523.934909c-1.094667 0-2.189334 0.243259-3.16237 0.608148-37.461931 14.230669-46.827414 39.651265-47.192304 40.624303-1.702815 4.621927 0.851408 9.852001 5.473335 11.433186 4.621927 1.581185 9.730372-0.729778 11.433186-5.473334 0.364889-0.973037 7.541038-18.852595 36.610524-29.920893 4.621927-1.702815 6.93289-6.93289 5.230075-11.554816-1.337926-3.52726-4.743556-5.716593-8.392446-5.716594z m0 0M621.649127 492.797719c-3.648889 0-7.05452 1.459556-9.487113 4.013779-2.554223 2.554223-3.892149 5.959853-3.892148 9.487112 0 3.648889 1.459556 7.05452 3.892148 9.487113 4.986816 4.986816 14.109039 4.986816 19.095855 0 2.554223-2.432593 4.013778-5.959853 4.013778-9.487113 0-3.52726-1.459556-7.05452-4.013778-9.487112-2.675852-2.554223-6.081482-4.013778-9.608742-4.013779z m0 0M521.912816 300.136358c-58.138971 0-116.034683 24.2043-157.023874 71.274974-14.473928 16.663262-24.325929 31.502079-31.988598 48.286969-30.042523 62.15275-14.595558 137.563131 37.583561 183.05262 64.098824 55.828008 162.497209 49.016748 218.325217-14.960447 18.001188-21.528448 12.527854-21.528448 39.529636-26.150374 18.001188-5.108445 42.813636-17.514669 58.38223-35.394228 32.718375-37.705191 35.637487-91.952013 9.122224-132.941204-0.243259-0.364889-0.729778-0.851408-0.973037-1.216296-10.21689-15.082076-22.501485-28.826226-36.245635-40.867562-39.408006-34.299561-88.181494-51.084452-136.711724-51.084452z m-50.233044 322.561825c-31.745338 0-63.612305-10.946668-89.276161-33.448153-46.219266-40.259413-59.841786-106.79083-33.204894-161.889061 7.05452-15.568595 15.811854-28.704597 29.191116-44.151562 68.84238-79.059271 189.134101-87.330087 268.193372-18.487706 9.852001 8.635705 18.852595 18.122817 26.758522 28.582967 0.364889 0.729778 0.729778 1.459556 1.216297 2.067704 28.218078 35.029338 27.123411 85.140753-2.432593 119.075425-13.014372 14.960447-30.650671 25.420596-49.989785 29.677634l-5.594964 1.094666v0.24326c-20.068892 4.865186-23.231263 7.662668-42.448747 30.650671-26.636893 30.772301-64.463713 46.584155-102.412163 46.584155z m0 0M566.672526 520.772538c-1.094667 0-2.189334 0.243259-3.16237 0.608149-37.461931 14.230669-46.827414 39.651265-47.192304 40.624302-1.702815 4.621927 0.851408 9.852001 5.473335 11.433187 4.621927 1.581185 9.730372-0.729778 11.433186-5.473335 0.364889-0.973037 7.541038-18.852595 36.610524-29.920893 4.621927-1.702815 6.93289-6.93289 5.230075-11.554816-1.337926-3.52726-4.743556-5.716593-8.392446-5.716594z m0 0M617.14883 489.635349c-3.648889 0-7.05452 1.459556-9.487112 4.013778-2.554223 2.554223-3.892149 5.959853-3.892149 9.487112 0 3.648889 1.459556 7.05452 3.892149 9.487113 4.986816 4.986816 14.109039 4.986816 19.095854 0 2.554223-2.432593 4.013778-5.959853 4.013779-9.487113 0-3.52726-1.459556-7.05452-4.013779-9.487112-2.675852-2.554223-6.081482-4.013778-9.608742-4.013778z m0 0"  horiz-adv-x="1024" />

    
    <glyph glyph-name="querenyuanzhengqueduigoutijiaochenggongwancheng" unicode="&#59608;" d="M512-71.111111C260.636444-71.111111 56.888889 132.636444 56.888889 384S260.636444 839.111111 512 839.111111s455.111111-203.747556 455.111111-455.111111-203.747556-455.111111-455.111111-455.111111z m264.334222 631.665778L425.358222 209.635556 217.884444 391.196444a28.444444 28.444444 0 0 1-37.489777-42.837333l227.555555-199.111111a28.444444 28.444444 0 0 1 38.855111 1.308444l369.777778 369.777778a28.444444 28.444444 0 0 1-40.220444 40.220445z"  horiz-adv-x="1024" />

    
    <glyph glyph-name="comment" unicode="&#58976;" d="M829.167 829.712H187.498c-82.85 0-149.998-73.601-149.998-157.49v-416.441c0-83.889 65.574-140.003 148.438-140.003h59.375v-178.491l207.813 178.491h385.938c82.821 0 148.438 56.114 148.438 140.003V672.222c-0.002 83.889-75.514 157.49-158.335 157.49z m98.958-573.931c0-55.607-44.728-80.516-89.063-80.516H431.155l-16.685-14.31-109.782-94.291v108.6h-118.75c-44.334 0-89.063 24.908-89.063 80.516V672.222c0 52.206 42.353 98.002 90.623 98.002h641.669c50.856 0 98.958-47.624 98.958-98.002v-416.441zM215.625 472.731c0-21.225 11.315-40.876 29.688-51.503a59.28 59.28 0 0 1 59.375 0c18.358 10.627 29.688 30.278 29.688 51.503 0 21.282-11.33 40.905-29.688 51.531a59.275 59.275 0 0 1-59.375 0c-18.373-10.626-29.688-30.249-29.688-51.531M453.125 472.731c0-32.836 26.581-59.487 59.375-59.487 32.78 0 59.375 26.651 59.375 59.487 0 21.282-11.302 40.905-29.688 51.531a59.275 59.275 0 0 1-59.375 0c-18.372-10.626-29.687-30.249-29.687-51.531M690.625 472.731c0-21.225 11.302-40.876 29.688-51.503a59.28 59.28 0 0 1 59.375 0c18.386 10.627 29.688 30.278 29.688 51.503 0 21.282-11.302 40.905-29.688 51.531a59.275 59.275 0 0 1-59.375 0c-18.386-10.626-29.688-30.249-29.688-51.531"  horiz-adv-x="1024" />

    
    <glyph glyph-name="xinshuai" unicode="&#59472;" d="M711.436238 768.575866c-79.31544 0-153.364947-38.535665-199.436238-101.141538-46.068222 62.605873-120.117728 101.141538-199.436238 101.141538-136.346341 0-247.273756-110.927415-247.273757-247.275803 0-65.366753 25.14775-126.762055 70.891584-173.285649a27.320229 27.320229 0 0 1 2.213411-2.506077l326.685387-326.682317c12.935614-12.938684 29.924543-19.401886 46.917566-19.401886 16.98893 0 33.987069 6.469342 46.924729 19.401886l326.682318 326.682317a27.028587 27.028587 0 0 1 2.181689 2.471285c45.762253 46.52564 70.923306 107.937315 70.923306 173.320441-0.001023 136.348388-110.928439 247.275803-247.273757 247.275803zM520.402367 57.348382c-4.63353-4.638647-12.172227-4.63353-16.800641-0.005117L198.274786 362.670206h116.03269l36.079729-61.569264a20.842701 20.842701 0 0 1 9.507538-8.524141c9.587356-4.837168 21.446451-1.635243 27.219945 7.656377l64.907289 104.426351 61.83737-181.53452c3.034103-8.904811 11.470239-14.43885 20.405749-14.195303 8.647961-0.144286 16.833387 5.106298 20.011776 13.67444l100.951203 271.228332 34.492582-116.472712a20.931728 20.931728 0 0 1 6.0416-11.490705c4.565992-4.564969 11.123338-6.891967 17.764596-5.949502h109.444644l-302.56913-302.571177z m342.976422 345.332073H726.821647l-47.63081 160.838151c-0.543376 7.976672-5.64558 15.286148-13.629416 18.243503l-0.783852 0.291643c-8.775874 3.254114-18.34481 0.252757-23.814382-6.752798a21.113877 21.113877 0 0 1-4.553713-9.44l-101.363595-272.323269-57.014528 167.393452c-3.042289 8.912997-11.487635 14.447037-20.430309 14.195303-7.161097 0.154519-14.222933-3.366677-18.277272-9.891277L369.547591 352.979496l-24.66168 42.085514c-3.718695 6.340405-10.251481 10.002818-17.08512 10.335393-0.059352 0.00307-0.115634 0.00307-0.174985 0.007163a22.121833 22.121833 0 0 1-0.739851 0.016373c-0.071631 0-0.144286 0.008186-0.215917 0.008186H158.451802c-25.099654 33.221636-38.684044 73.470315-38.684045 115.867938 0 106.309234 86.48677 192.799074 192.797028 192.799074 74.567299 0 143.166677-43.682895 174.759209-111.286596a27.236318 27.236318 0 0 1 24.677029-15.70775 27.243481 27.243481 0 0 1 24.677029 15.70468c31.595602 67.606771 100.19191 111.288642 174.75921 111.288642 106.309234 0 192.797028-86.48984 192.797027-192.799074-0.002047-43.585681-14.392802-84.877109-40.8555-118.618584z"  horiz-adv-x="1024" />

    
    <glyph glyph-name="gouliang" unicode="&#58887;" d="M606-79.4c-49.3 49.3-55.5 125.7-18.5 181.8l-351 350.9c-56.1-37-132.5-30.8-181.8 18.5-56.4 56.4-56.4 148.1 0 204.5 31.4 31.4 74.6 45.4 116.4 41.3-8.4 45.4 4.9 94 39.9 129C267.4 903 359.1 903 415.5 846.6 464.8 797.3 471 720.9 434 664.8l350.9-350.9c56.1 37 132.5 30.8 181.8-18.5 56.4-56.4 56.4-148.1 0-204.5-31.4-31.4-74.5-45.5-116.4-41.5 8.5-45.4-4.9-93.9-39.8-128.8-56.4-56.3-148.2-56.3-204.5 0zM259.2 513l387.9-387.9c11.4-11.4 11.4-29.8 0-41.2-33.6-33.6-33.6-88.4 0-122 33.6-33.6 88.4-33.6 122 0 32.5 32.5 33.8 84.7 2.9 118.8-10.4 11.5-10 29.2 1 40.2l1.1 1.1c10.3 10.3 26.6 11.4 38.2 2.6 34.1-25.9 82.7-22.6 113.1 7.7 33.6 33.6 33.6 88.4 0 122-33.6 33.6-88.4 33.6-122 0-11.4-11.4-29.8-11.4-41.2 0l-388 387.8c-11.4 11.4-11.4 29.8 0 41.2 33.6 33.6 33.6 88.4 0 122s-88.4 33.6-122 0-33.6-88.4 0-122c11.4-11.4 11.4-29.8 0-41.2-10.7-10.7-28.2-11.8-39.7-2-33.9 28.6-85.1 26.4-116.5-5-33.6-33.6-33.6-88.4 0-122s88.4-33.6 122 0c11.4 11.3 29.8 11.3 41.2-0.1zM606-79.4c-49.3 49.3-55.5 125.7-18.5 181.8L218 471.8c-11.4 11.4-11.4 29.8 0 41.2 11.4 11.4 29.8 11.4 41.2 0l387.9-387.9c11.4-11.4 11.4-29.8 0-41.2-33.6-33.6-33.6-88.4 0-122 33.6-33.6 88.4-33.6 122 0 32.5 32.5 33.8 84.7 2.9 118.8-10.4 11.5-10 29.2 1 40.2l1.1 1.1c11.4 11.4 29.8 11.4 41.2 0 2.9-2.9 5.1-6.3 6.5-9.8 44.9-57.1 40.7-139.3-11.4-191.4-56.3-56.5-148.1-56.5-204.4-0.2zM54.8 471.8c-56.4 56.4-56.4 148.1 0 204.5 51.6 51.6 135.2 56.1 192 11 1.9-1.2 3.6-2.5 5.3-4.2 11.4-11.4 11.6-29.7 0.2-41l-0.4-0.4c-10.7-10.7-27.8-11.4-39.4-1.7-33.9 28.6-85.1 26.4-116.5-5-33.6-33.6-33.6-88.4 0-122s88.4-33.6 122 0c11.4 11.4 29.8 11.4 41.2 0 11.4-11.4 11.4-29.8 0-41.2-56.3-56.3-148.1-56.3-204.4 0z"  horiz-adv-x="1024" />

    
    <glyph glyph-name="weixin" unicode="&#58883;" d="M655.6 511.2c10 0 18 0 28.4-2-24 115.2-146.8 199.2-286 199.2-154.8 0-284.4-106.8-284.4-242 0-78.8 42.4-141.2 112.8-191.2l-28.4-84 98.8 50.4c36.4-6.4 64.4-14.4 98.8-14.4 8 0 18 0 26.4 2-6.4 18-8 38-8 60.4-0.4 120.8 106.4 221.6 241.6 221.6z m-153.2 78.8c22 0 36.4-14.4 36.4-36.4s-14.4-36.4-36.4-36.4S460 532 460 553.6c0 22.4 20.4 36.4 42.4 36.4zM303.2 517.6c-22 0-42.4 14.4-42.4 36.4s22 36.4 42.4 36.4c22 0 36.4-14.4 36.4-36.4s-14.4-36.4-36.4-36.4z m0 0M913.6 289.6c0 112.8-112.8 205.6-242 205.6-135.2 0-242-92.8-242-205.6s106.8-205.6 242-205.6c28.4 0 56.4 8 84.8 14.4l78.8-42.4-22 70.8c57.6 43.6 100.4 100.4 100.4 162.8z m-318.4 36.4c-14.4 0-28.4 14.4-28.4 28.4 0 14.4 14.4 28.4 28.4 28.4 22 0 36.4-14.4 36.4-28.4-2.4-14.8-16.4-28.4-36.4-28.4z m155.2 0c-14.4 0-28.4 14.4-28.4 28.4 0 14.4 14.4 28.4 28.4 28.4 22 0 36.4-14.4 36.4-28.4 0-14.8-14.4-28.4-36.4-28.4z m0 0"  horiz-adv-x="1024" />

    
    <glyph glyph-name="aixin1" unicode="&#58884;" d="M240.463627 484.133288c64.991237 44.651208 129.595046 89.980417 195.070569 133.663051 120.974747 80.778975 242.14321 161.364235 364.377102 240.399779A209.502305 209.502305 0 0 0 876.13798 888.221876a63.635235 63.635235 0 0 0 50.172073-17.434311c9.104585-9.685728 12.785161-39.2272 5.133436-48.428642-38.742914-44.263779-76.807826-90.174131-123.105607-125.139611-118.940745-89.786702-242.14321-174.343111-363.311672-260.739808a23.245748 23.245748 0 0 1-10.266872-17.434311c11.622874 7.458011 23.53632 14.528593 34.965479 22.277175 143.445637 96.857284 286.406988 194.779998 430.627484 290.571852a530.099914 530.099914 0 0 0 96.857284 47.460069c26.151467 10.460587 56.177225 14.722307 74.192679-14.238021s8.136012-58.11437-15.012879-78.357543c-51.237503-45.716638-104.412152-89.302416-157.489943-132.888193-21.502317-17.628026-44.94178-32.931476-64.89438-52.884077 59.276658 35.546623 117.778457 72.255534 178.120545 105.865011a177.92683 177.92683 0 0 0 70.60896 22.083461c14.62545 1.162287 38.742914-9.685728 43.682635-21.502317 6.78001-15.69088 6.683153-43.682635-3.390005-55.692938a933.21993 933.21993 0 0 0-99.666145-98.697572c-29.057185-25.764037-60.826374-48.428642-88.527558-76.129825 24.989179 9.685728 49.300357 23.342605 75.25811 28.282326 15.981452 3.099433 40.873774-1.452859 49.881501-12.300875a58.11437 58.11437 0 0 0 5.424008-52.109218 206.887158 206.887158 0 0 0-51.043789-64.119522C906.066881 184.35999400000003 796.037007 94.08900600000004 687.653706 1.880871999999954c-8.039155-6.876867-7.84544-23.148891-12.010303-34.96548-4.842864-13.753734-6.392581-32.059761-16.175167-40.002058a356.919091 356.919091 0 0 0-78.841829-49.494072c-15.012879-6.683153-46.104067-7.748583-51.043788 0-9.685728 15.497165-13.850592 43.973207-5.520865 58.11437a331.445625 331.445625 0 0 0 67.800098 78.938686c64.991237 57.339512 132.403907 111.870163 196.232857 172.115394-27.313754-18.402884-54.433794-37.193197-82.038119-55.208652q-100.828432-65.669238-202.141151-130.563619a276.236973 276.236973 0 0 0-35.643481-17.531168c-25.279751-11.429159-49.687787-11.913446-69.252958 10.654301-20.824316 24.117464-12.204018 50.656359 6.005152 68.284385 50.075216 48.428642 101.506433 95.888711 156.133941 139.08706 67.800099 53.658935 139.280774 102.668721 205.821728 159.427089-11.816589-7.458011-23.826892-14.528593-35.546623-22.277175-107.899014-70.027816-214.442026-142.089635-322.147326-211.536308a217.057173 217.057173 0 0 0-82.71612-32.059761 73.320964 73.320964 0 0 0-54.433794 21.986603c-18.402884 19.371457-6.586295 44.94178 8.717156 61.891805a774.858271 774.858271 0 0 0 88.333843 85.428124c48.428642 38.742914 100.150431 74.773823 150.613076 111.676448a85.428124 85.428124 0 0 0 15.787737 7.264297l-8.232869 9.685728c-35.159194-23.439463-69.156101-48.428642-105.574439-69.930959-64.216379-37.193197-129.691903-72.255534-195.167427-107.414728-25.860895-13.850592-54.821223-8.91087-66.056668 15.594023-8.039155 17.82174-6.005152 52.399791 6.295724 65.088095a1771.713436 1771.713436 0 0 0 154.971654 139.183917c48.428642 38.742914 100.344146 73.708393 146.54507 116.22874-43.682635-29.832043-86.106125-61.891804-131.435334-89.108701-67.800099-40.680059-137.246771-78.4544-206.596586-116.22874-25.957752-14.238021-50.075216-6.973724-67.800099 15.594022s-8.814013 48.428642 8.039155 65.475524c51.043789 52.690362 104.605867 102.959293 157.296229 154.003081a136.956199 136.956199 0 0 1 29.735186 34.868623c-45.813495-29.057185-90.852132-60.051516-137.634201-87.849557a198.170003 198.170003 0 0 0-68.865528-27.79804c-40.583202-6.102009-64.313236 25.473466-43.295206 60.923231 27.991755 47.266355 64.410094 89.592988 97.438427 133.663052 6.392581 8.523441 14.334878 15.787737 27.216897 29.735186-14.916022 0-25.279751-3.099433-31.866046 0.678001-12.49459 7.070582-29.541472 16.659453-31.866047 27.79804s8.136012 30.122615 18.596599 37.386912c40.29263 27.991755 82.909835 52.593505 124.655324 78.4544 5.133436 3.19629 9.685728 7.070582 15.012879 9.685728 23.439463 12.397732 48.428642 29.057185 72.255534 4.64915s9.685728-52.399791-7.264296-74.483251c-43.198349-56.370939-88.333843-111.289019-138.215344-173.66511 50.559502 34.674908 94.338994 65.766096 139.280774 95.016995q83.10355 54.046364 167.95053 105.283868c23.923749 14.431735 50.850074 21.018031 71.577533-4.939722s9.685728-54.530651-10.36373-74.580108c-65.281809-64.216379-132.30705-126.689327-199.526004-189.065418-28.18547-26.151467-58.11437-50.26893-87.171556-75.354967z"  horiz-adv-x="1131" />

    
    <glyph glyph-name="xiaoxi" unicode="&#58882;" d="M744.791919 409.341414c25.082828 0 45.381818 20.428283 45.381818 45.381818 0 25.082828-20.428283 45.381818-45.381818 45.381819-25.082828 0-45.381818-20.428283-45.381818-45.381819s20.29899-45.381818 45.381818-45.381818z m-465.971717 90.892929c-25.082828 0-45.381818-20.428283-45.381818-45.381818 0-25.082828 20.428283-45.381818 45.381818-45.381818 25.082828 0 45.381818 20.428283 45.381818 45.381818 0 25.082828-20.428283 45.381818-45.381818 45.381818z m0 0M947.523232 809.632323l0.258586 0.258586-4.913131 4.913131c-20.428283 20.428283-47.709091 31.806061-76.412121 31.806061H157.155556c-28.573737 0-55.59596-11.119192-75.89495-31.288889l-0.517172-0.517172c-20.557576-20.686869-31.806061-47.838384-31.80606-76.670707v-557.769697c0-28.832323 11.248485-55.983838 31.80606-76.412121l4.39596-4.266667 0.129293 0.129293c19.911111-17.842424 45.252525-27.668687 72.016161-27.668686h0.258586c51.458586-2.715152 83.523232-2.844444 111.967677-2.844445 21.462626-0.129293 43.571717-0.129293 73.826263-1.551515h0.258586c2.585859-0.129293 4.913131-0.517172 6.852525-1.292929 0.905051-0.258586 1.680808-0.775758 2.327273-1.422223l110.028282-122.828282c1.422222-1.551515 2.715152-2.844444 3.878788-4.008081l0.387879-0.258586c11.377778-10.343434 26.375758-16.032323 42.278788-16.032323h0.129293c15.773737 0 30.771717 5.688889 42.278788 15.90303 1.422222 1.292929 2.844444 2.715152 4.395959 4.39596l113.648485 124.896969c0.775758 0.775758 1.422222 1.292929 2.327273 1.810101l0.646465 0.258586c1.422222 0.646465 3.232323 0.905051 5.171717 0.905051 11.248485-0.129293 38.787879 0.129293 73.696969 0.646464 33.486869 0.387879 72.145455 1.163636 111.967677 1.810101h3.232323c28.832323 0 55.983838 11.248485 76.412122 31.806061 20.428283 20.428283 31.806061 47.709091 31.80606 76.412121V738.133333c-0.387879 26.505051-9.955556 51.717172-27.539394 71.49899zM646.658586 113.907071c-5.818182-3.232323-10.989899-7.240404-15.515152-12.153536l-113.519192-124.896969-0.775757-0.775758c-1.939394-1.680808-4.654545-2.585859-7.49899-2.585859-2.844444 0-5.559596 0.905051-7.369697 2.585859l-0.775758 0.775758-105.50303 117.656565-4.395959 4.913132c-6.076768 6.981818-13.705051 12.153535-22.49697 15.515151-6.852525 2.585859-14.610101 4.137374-23.014142 4.525253-29.99596 1.422222-52.492929 1.551515-76.282828 1.680808-27.280808 0.129293-58.311111 0.258586-110.933333 2.844444l-0.905051 0.129293h-0.517171c-14.092929 0-27.410101 5.171717-37.753536 14.610101l-1.939394 1.939394c-10.60202 10.60202-16.549495 24.694949-16.549495 39.563636V738.133333c0 14.99798 5.818182 29.090909 16.420202 39.69293l0.129293 0.129293c10.60202 10.60202 24.694949 16.420202 39.69293 16.420202h709.30101c14.868687 0 28.961616-5.947475 39.692929-16.549495l1.292929-1.163637c9.955556-10.472727 15.256566-24.048485 15.256566-38.529293v-557.769697c0-14.868687-5.947475-28.961616-16.549495-39.692929-10.60202-10.60202-24.694949-16.549495-39.692929-16.549495h-0.646465l-0.387879-0.129293c-42.79596-0.775758-82.488889-1.551515-114.682828-1.939394-39.951515-0.517172-63.741414-0.646465-72.662626-0.646464-9.050505 0-17.713131-1.551515-25.470707-4.783839l-6.076768-2.456565 0.129293-0.258586z m0 0M511.806061 500.234343c-25.082828 0-45.381818-20.428283-45.381819-45.381818 0-25.082828 20.428283-45.381818 45.381819-45.381818 25.082828 0 45.381818 20.428283 45.381818 45.381818 0 25.082828-20.29899 45.381818-45.381818 45.381818z m0 0"  horiz-adv-x="1024" />

    
    <glyph glyph-name="weixinzhifu-" unicode="&#58938;" d="M956.536471-128H68.668235C30.117647-128 0-97.882353 0-60.536471V827.331765C0 865.882353 30.117647 896 68.668235 896h887.868236C993.882353 896 1024 865.882353 1024 827.331765v-887.868236c0-37.345882-30.117647-67.463529-67.463529-67.463529zM395.143529 282.804706c-13.251765-7.228235-30.117647-1.204706-38.550588 12.047059l-2.409412 3.614117-78.305882 172.272942c-1.204706 1.204706-1.204706 3.614118-1.204706 6.023529 0 3.614118 1.204706 7.228235 3.614118 9.637647 2.409412 2.409412 6.023529 4.818824 9.637647 3.614118 3.614118 0 6.023529-1.204706 8.432941-2.409412l92.762353-66.258824c10.842353-7.228235 25.298824-9.637647 38.550588-4.818823l436.10353 193.957647c-78.305882 91.557647-207.209412 151.792941-352.978824 151.792941C272.263529 762.277647 79.510588 600.847059 79.510588 402.070588c0-108.423529 57.825882-206.004706 149.38353-272.263529 7.228235-4.818824 12.047059-14.456471 12.047058-22.889412 0-3.614118 0-6.023529-1.204705-9.637647l-19.275295-72.282353c-1.204706-3.614118-2.409412-7.228235-2.409411-10.842353 0-8.432941 6.023529-14.456471 14.45647-14.45647 2.409412 0 6.023529 1.204706 8.432941 2.409411l93.967059 54.211765c10.842353 7.228235 24.094118 8.432941 36.141177 4.818824 45.778824-13.251765 92.762353-19.275294 140.950588-19.275295 238.531765 0 431.284706 161.430588 431.284706 359.002353 0 59.030588-16.865882 116.856471-49.392941 166.249412L397.552941 284.009412l-2.409412-1.204706z m0 0"  horiz-adv-x="1024" />

    
    <glyph glyph-name="xueli" unicode="&#58915;" d="M512 358.4c-12.8 0-32 0-44.8 6.4L51.2 505.6c-32 12.8-51.2 44.8-51.2 76.8s19.2 64 51.2 76.8l409.6 140.8c32 12.8 64 12.8 96 0l409.6-140.8c38.4-12.8 57.6-44.8 57.6-76.8s-19.2-64-51.2-76.8l-416-140.8c-12.8-6.4-32-6.4-44.8-6.4z m0 384c-6.4 0-19.2 0-25.6-6.4l-409.6-140.8c-12.8 0-12.8-6.4-12.8-12.8s0-12.8 12.8-12.8l409.6-140.8c19.2-6.4 32-6.4 51.2 0l409.6 140.8c12.8 0 12.8 6.4 12.8 12.8s0 12.8-12.8 12.8l-409.6 140.8C531.2 742.4 518.4 742.4 512 742.4z m211.2-736h-422.4c-76.8 0-140.8 64-140.8 140.8V486.4c0 19.2 12.8 32 32 32s32-12.8 32-32v-339.2c0-44.8 32-76.8 76.8-76.8H729.6c38.4 0 76.8 38.4 76.8 76.8V486.4c0 19.2 12.8 32 32 32S870.4 505.6 870.4 486.4v-339.2c-6.4-76.8-70.4-140.8-147.2-140.8z m236.8 32c-19.2 0-32 12.8-32 32v384c0 19.2 12.8 32 32 32s32-12.8 32-32v-384c0-19.2-12.8-32-32-32z m-51.2-76.8a51.2 51.2 0 1 1 102.4 0 51.2 51.2 0 0 1-102.4 0z"  horiz-adv-x="1024" />

    
    <glyph glyph-name="jiesuo2" unicode="&#58885;" d="M844.118 466.652H352.85V632.967c0 88.019 71.643 159.662 159.662 159.662s159.15-71.643 159.15-159.662v-38.893h99.278V637.06C770.94 779.835 654.775 896 512 896S253.06 779.835 253.06 637.06v-170.408h-73.178c-35.31 0-63.968-28.658-63.968-63.968v-466.706c0-35.31 28.658-63.967 63.968-63.967h663.724c35.31 0 63.968 28.658 63.968 63.967V403.195c0.512 34.799-28.146 63.457-63.456 63.457zM547.822 157.56v-101.836c0-4.606-3.582-8.188-8.188-8.188h-55.268c-4.606 0-8.7 4.094-8.7 8.188V157.561c-25.586 13.306-43.497 39.405-43.497 70.62 0 44.009 35.821 79.32 79.319 79.32 44.01 0 79.32-35.822 79.32-79.32 1.023-31.215-16.888-57.314-42.986-70.62zM671.662 592.027a49.64 49.64 0 1 1 99.278 0 49.64 49.64 0 1 1-99.278 0z"  horiz-adv-x="1024" />

    
    <glyph glyph-name="gerenzhongxinwoderenwubiaozhuntouxianxing" unicode="&#58909;" d="M376.32 389.632c-121.344 84.48-151.552 250.88-67.584 372.736s250.88 151.552 372.736 67.584 151.552-250.88 67.584-372.736c-20.992-30.208-47.616-55.296-78.336-74.752 190.464-65.536 326.656-246.272 326.656-458.752 0-18.432-14.848-33.28-33.28-33.28s-33.28 14.848-33.28 33.28c0 230.912-187.392 418.304-418.304 418.304s-418.304-187.392-418.304-418.304c0-18.432-14.848-33.28-33.28-33.28s-33.28 14.848-33.28 33.28c-1.024 221.184 146.432 407.552 348.672 465.92z m152.576 19.456c111.104 0 200.704 90.112 200.704 200.704s-90.112 200.704-200.704 200.704S327.68 720.896 327.68 609.792s90.112-200.704 201.216-200.704z"  horiz-adv-x="1024" />

    
    <glyph glyph-name="icon--" unicode="&#58888;" d="M604.16 624.64c-40.96-40.96-40.96-107.52 0-151.04 40.96-40.96 107.52-40.96 151.04 0 40.96 40.96 40.96 107.52 0 151.04-43.52 40.96-110.08 40.96-151.04 0zM716.8 512c-20.48-20.48-53.76-20.48-74.24 0-20.48 20.48-20.48 53.76 0 74.24 20.48 20.48 53.76 20.48 74.24 0 20.48-20.48 20.48-53.76 0-74.24z m156.16 281.6H529.92c-28.16 0-33.28-12.8-58.88-38.4L133.12 417.28c-40.96-40.96-40.96-107.52 0-151.04l263.68-261.12c40.96-40.96 107.52-40.96 151.04 0l337.92 337.92c20.48 20.48 38.4 33.28 38.4 58.88V744.96c-2.56 25.6-25.6 48.64-51.2 48.64zM509.44 43.51999999999998c-20.48-20.48-53.76-20.48-74.24 0L171.52 304.64c-20.48 20.48-20.48 53.76 0 74.24l38.4 38.4 337.92-337.92-38.4-35.84z m363.52 384c0-12.8-12.8-33.28-25.6-46.08L583.68 117.75999999999999 245.76 455.68 509.44 716.8c12.8 12.8 30.72 28.16 46.08 28.16h294.4c12.8 0 25.6-10.24 25.6-25.6v-291.84z"  horiz-adv-x="1024" />

    


  </font>
</defs>
</svg>
